<svg width="72" height="71" viewBox="0 0 72 71" fill="none" xmlns="http://www.w3.org/2000/svg">
<g filter="url(#filter0_d)">
<path d="M44.2844 10H16.8538C13.0685 10 10 13.0475 10 16.8068V44.0493C10 47.8086 13.0685 50.8561 16.8538 50.8561H44.2844C48.0696 50.8561 51.1381 47.8086 51.1381 44.0493V16.8068C51.1381 13.0475 48.0696 10 44.2844 10Z" fill="#F58A8A"/>
</g>
<path d="M37 26H36V24C36 21.24 33.76 19 31 19C28.24 19 26 21.24 26 24V26H25C23.9 26 23 26.9 23 28V38C23 39.1 23.9 40 25 40H37C38.1 40 39 39.1 39 38V28C39 26.9 38.1 26 37 26ZM31 35C29.9 35 29 34.1 29 33C29 31.9 29.9 31 31 31C32.1 31 33 31.9 33 33C33 34.1 32.1 35 31 35ZM34.1 26H27.9V24C27.9 22.29 29.29 20.9 31 20.9C32.71 20.9 34.1 22.29 34.1 24V26Z" fill="white"/>
<defs>
<filter id="filter0_d" x="0" y="0" width="71.1381" height="70.8561" filterUnits="userSpaceOnUse" color-interpolation-filters="sRGB">
<feFlood flood-opacity="0" result="BackgroundImageFix"/>
<feColorMatrix in="SourceAlpha" type="matrix" values="0 0 0 0 0 0 0 0 0 0 0 0 0 0 0 0 0 0 127 0"/>
<feOffset dx="5" dy="5"/>
<feGaussianBlur stdDeviation="7.5"/>
<feColorMatrix type="matrix" values="0 0 0 0 0 0 0 0 0 0 0 0 0 0 0 0 0 0 0.15 0"/>
<feBlend mode="normal" in2="BackgroundImageFix" result="effect1_dropShadow"/>
<feBlend mode="normal" in="SourceGraphic" in2="effect1_dropShadow" result="shape"/>
</filter>
</defs>
</svg>
